<?xml version="1.0" encoding="UTF-8" standalone="no"?>
<!-- Uploaded to: SVG Repo, www.svgrepo.com, Generator: SVG Repo Mixer Tools -->

<svg
   height="42.083981"
   width="202.02148"
   version="1.1"
   id="Capa_1"
   viewBox="0 0 84.565183 17.616144"
   xml:space="preserve"
   xmlns:xlink="http://www.w3.org/1999/xlink"
   xmlns="http://www.w3.org/2000/svg"
   xmlns:svg="http://www.w3.org/2000/svg"><defs
   id="defs3"><linearGradient
     id="linearGradient26"><stop
       style="stop-color:#00fbff;stop-opacity:1;"
       offset="0"
       id="stop26" /><stop
       style="stop-color:#6600ff;stop-opacity:1;"
       offset="1"
       id="stop27" /></linearGradient><radialGradient
     xlink:href="#linearGradient26"
     id="radialGradient27"
     cx="51.768787"
     cy="17.682491"
     fx="51.768787"
     fy="17.682491"
     r="47.567856"
     gradientTransform="matrix(3.078696,-0.00999393,0.00124045,0.38212316,-108.68169,3.5368025)"
     gradientUnits="userSpaceOnUse" /></defs>
<g
   id="g3"
   transform="translate(-11.097673,-1.4609947)">
	
	
	
<path
   id="text24"
   style="font-weight:900;font-size:17.8601px;font-family:'Inter 18pt';-inkscape-font-specification:'Inter 18pt, Heavy';fill:url(#radialGradient27);stroke-width:0.418595"
   d="m 59.86399,1.4609947 c -0.494176,0 -0.912769,0.1569723 -1.255785,0.4709193 -0.337202,0.3081332 -0.505257,0.6918433 -0.505257,1.1511363 0,0.4476652 0.168055,0.8313753 0.505257,1.1511362 0.343016,0.3139471 0.761609,0.4709194 1.255785,0.4709194 0.488362,0 0.901414,-0.1569723 1.238616,-0.4709194 0.343016,-0.313947 0.514251,-0.6976571 0.514251,-1.1511362 0,-0.459293 -0.171235,-0.8430031 -0.514251,-1.1511363 C 60.765404,1.617967 60.352352,1.4609947 59.86399,1.4609947 Z M 11.097673,2.2458603 V 15.239474 h 3.549064 V 2.2458603 Z m 16.691476,0 V 15.239474 h 3.505733 v -2.72332 l 0.519973,-0.65896 1.982603,3.38228 h 3.985646 L 34.396736,9.8337122 37.687449,5.6117892 H 33.745134 L 31.39953,8.8297383 h -0.104648 v -6.583878 z m 10.700334,0 V 15.239474 h 6.121952 c 0.941841,0 1.752865,-0.156972 2.433084,-0.470919 0.680218,-0.319761 1.201097,-0.755795 1.561555,-1.30811 0.366271,-0.558128 0.549406,-1.191558 0.549406,-1.900846 0,-0.610453 -0.13399,-1.145594 -0.401426,-1.6048867 C 48.486617,9.4954194 48.123528,9.1346919 47.664235,8.8730694 47.210756,8.6114467 46.704956,8.4719157 46.146828,8.4544744 V 8.3498257 c 0.505804,-0.098835 0.9442,-0.2787901 1.316286,-0.5404127 0.377899,-0.2674364 0.67204,-0.5988224 0.881338,-0.9941632 0.209298,-0.4011545 0.313946,-0.84273 0.313946,-1.3252783 0,-0.6511495 -0.172052,-1.2179939 -0.515068,-1.7005422 C 47.800314,3.3010673 47.292153,2.9228984 46.617748,2.655462 45.943343,2.3822118 45.111698,2.2458603 44.123347,2.2458603 Z m 31.072503,0 v 4.9618224 h -0.04415 C 69.378306,6.8762941 69.184088,6.5797908 68.934094,6.3181683 68.689912,6.0565457 68.39023,5.8504287 68.035586,5.699269 67.686756,5.5481094 67.280063,5.471985 66.814957,5.471985 c -0.668591,0 -1.296481,0.1775932 -1.883678,0.532237 -0.581383,0.354644 -1.0523,0.8985058 -1.412758,1.6310489 -0.360458,0.7325431 -0.54123,1.6624766 -0.54123,2.7903611 0,1.093 0.172051,2.008673 0.515068,2.747029 0.34883,0.732544 0.816567,1.285126 1.403765,1.657211 0.587197,0.366272 1.238069,0.549406 1.95317,0.549406 0.447664,0 0.846456,-0.07294 1.195285,-0.21829 0.354644,-0.145346 0.653509,-0.342743 0.89769,-0.592737 0.249995,-0.255809 0.44503,-0.555491 0.584562,-0.898508 h 0.06949 v 1.569731 h 3.462402 V 2.2458603 Z M 42.013203,5.0100589 h 1.551745 c 0.42441,0 0.773236,0.1078276 1.046487,0.3229395 0.279064,0.2151119 0.418595,0.5171564 0.418595,0.9066833 0,0.2616226 -0.06341,0.4851809 -0.191311,0.6712236 -0.127904,0.1802289 -0.305497,0.3197598 -0.532237,0.418595 -0.226739,0.093021 -0.48836,0.1398042 -0.784866,0.1398042 H 42.013203 Z M 22.739846,5.471985 c -0.901144,0 -1.60752,0.2528999 -2.119137,0.7587035 -0.395563,0.3910161 -0.707672,0.860384 -0.936116,1.4078527 l -0.04905,-2.026752 h -3.322598 v 9.6276848 h 3.505734 V 9.8933947 c 0,-0.3313885 0.05469,-0.6104504 0.165148,-0.83719 0.116277,-0.2325534 0.276429,-0.4093289 0.479913,-0.5314194 0.209298,-0.1279044 0.456657,-0.1921286 0.741535,-0.1921286 0.436037,0 0.772964,0.1363516 1.011332,0.4096018 0.238367,0.2674364 0.357277,0.6424258 0.357277,1.124974 v 5.3722415 h 3.497557 V 9.1175223 c 0,-0.7151016 -0.133989,-1.3461703 -0.401426,-1.8926707 C 25.402575,6.6725373 25.018864,6.2428619 24.518875,5.9347287 24.024699,5.6265955 23.431693,5.471985 22.739846,5.471985 Z m 55.542324,0 c -0.674405,0 -1.304655,0.1775932 -1.891853,0.532237 -0.581383,0.354644 -1.05548,0.8985058 -1.421751,1.6310489 -0.360458,0.7267293 -0.540413,1.6511219 -0.540413,2.7731921 0,1.063932 0.174414,1.944721 0.523244,2.642381 0.348831,0.69766 0.813388,1.217722 1.394772,1.560738 0.587197,0.337202 1.238887,0.506075 1.953988,0.506075 0.430224,0 0.816296,-0.05787 1.159312,-0.174143 0.343016,-0.12209 0.633978,-0.299683 0.872345,-0.532237 0.244182,-0.232553 0.427316,-0.517974 0.549406,-0.855176 h 0.200304 v 1.604887 c 0,0.523245 -0.136351,0.913314 -0.409601,1.169122 -0.267437,0.255809 -0.674129,0.38344 -1.22063,0.38344 -0.290691,0 -0.546771,-0.03488 -0.767697,-0.104649 -0.215112,-0.06395 -0.389525,-0.156701 -0.523243,-0.278791 -0.133722,-0.12209 -0.217749,-0.26798 -0.252629,-0.436581 l -3.131287,0.358095 c 0.09302,0.563942 0.334839,1.057841 0.724366,1.482251 0.389527,0.42441 0.915129,0.752617 1.577907,0.98517 0.66859,0.238367 1.462173,0.358095 2.380759,0.358095 1.034863,0 1.930731,-0.160152 2.686529,-0.479913 0.761612,-0.31976 1.34826,-0.796219 1.761043,-1.429927 0.418596,-0.633708 0.627892,-1.421748 0.627892,-2.36359 V 5.6117892 h -3.470577 v 1.6048867 h -0.05233 C 80.872499,6.8911012 80.675103,6.5969598 80.419294,6.3353372 80.169299,6.0679008 79.864075,5.8586044 79.503618,5.7074447 79.148974,5.5504712 78.741463,5.471985 78.28217,5.471985 Z m 12.540681,0 c -0.994166,0 -1.860693,0.2092965 -2.599049,0.6278925 -0.732544,0.4127823 -1.30175,0.9947062 -1.708718,1.7446909 -0.406968,0.7441708 -0.610724,1.6098805 -0.610724,2.5982326 0,1.029048 0.203756,1.916196 0.610724,2.660367 0.406968,0.744171 0.982533,1.316557 1.726704,1.717711 0.749985,0.401154 1.636315,0.601731 2.65955,0.601731 0.825565,0 1.558102,-0.118911 2.197624,-0.357278 0.639522,-0.244181 1.168304,-0.587467 1.5869,-1.029318 0.42441,-0.441852 0.712193,-0.956372 0.863352,-1.543569 l -3.087138,-0.357278 c -0.06977,0.174415 -0.174414,0.325029 -0.313946,0.452933 -0.139532,0.122091 -0.307587,0.218018 -0.505257,0.287784 -0.19767,0.06395 -0.415688,0.09647 -0.654055,0.09647 -0.337203,0 -0.631344,-0.0674 -0.881339,-0.201122 C 89.863298,12.6317 89.671443,12.425584 89.531911,12.152333 89.410805,11.904856 89.344664,11.602811 89.333242,11.24565 h 6.329614 v -0.83719 c 0,-0.7557986 -0.116548,-1.436012 -0.349102,-2.0406508 C 95.087014,7.7573595 94.761987,7.2364803 94.337578,6.8062566 93.913168,6.3760328 93.40101,6.0478263 92.802184,5.8210867 92.209174,5.5885334 91.549581,5.471985 90.822851,5.471985 Z M 56.105629,5.516134 c -0.546501,0 -1.008697,0.1506135 -1.386596,0.4529329 -0.3779,0.3023194 -0.653782,0.7906777 -0.828197,1.4650825 h -0.08748 V 5.6117892 h -3.401084 v 9.6276848 h 3.505733 V 10.31199 c 0,-0.3837135 0.07531,-0.7150993 0.226466,-0.9941634 0.15116,-0.2790641 0.363635,-0.4970812 0.636886,-0.6540547 0.27325,-0.1569735 0.584016,-0.2354597 0.932846,-0.2354597 0.186042,0 0.404059,0.0119 0.654054,0.035156 0.255809,0.017441 0.465105,0.049145 0.627893,0.095655 V 5.6207825 C 56.846618,5.5858991 56.701546,5.5597372 56.550386,5.5422959 56.40504,5.5248546 56.256788,5.5161337 56.105629,5.516134 Z m 2.005495,0.095655 v 9.627685 h 3.505733 V 5.6117892 Z m 32.755059,2.3194415 c 0.337202,0 0.619444,0.069765 0.846183,0.2092975 0.22674,0.139532 0.397974,0.3401077 0.51425,0.6017303 0.07463,0.167909 0.125337,0.359764 0.152068,0.5755681 H 89.353681 C 89.380411,9.1020223 89.431121,8.9101673 89.505749,8.7422583 89.62784,8.4806357 89.802253,8.28006 90.028993,8.140528 90.255733,8.000996 90.534795,7.9312305 90.866183,7.9312305 Z M 79.537955,8.1495214 c 0.319761,0 0.596461,0.090386 0.829015,0.2706151 0.232553,0.1802289 0.412506,0.43867 0.540412,0.7758724 0.133718,0.3313885 0.200305,0.7293603 0.200305,1.1944671 0,0.453479 -0.06659,0.84591 -0.200305,1.177299 -0.127904,0.325574 -0.307859,0.576112 -0.540412,0.750527 -0.232554,0.174415 -0.509254,0.261622 -0.829015,0.261622 -0.31976,0 -0.592463,-0.08484 -0.819203,-0.253446 -0.226739,-0.174415 -0.401153,-0.424135 -0.523244,-0.74971 -0.116277,-0.331389 -0.174959,-0.726999 -0.174959,-1.186292 0,-0.4651068 0.05868,-0.8630786 0.174959,-1.1944671 0.122091,-0.3372024 0.296505,-0.5956435 0.523244,-0.7758724 0.22674,-0.1802288 0.499443,-0.2706151 0.819203,-0.2706151 z m -11.450044,0.00899 c 0.31976,0 0.595643,0.092748 0.828196,0.2787908 0.232554,0.1802288 0.413326,0.4386699 0.541231,0.7758723 0.133718,0.3372024 0.200304,0.7415331 0.200304,1.2124545 0,0.459292 -0.06659,0.857264 -0.200304,1.194467 -0.127905,0.337202 -0.308677,0.598823 -0.541231,0.784866 -0.232553,0.186042 -0.508436,0.279608 -0.828196,0.279608 -0.319761,0 -0.593282,-0.09039 -0.820022,-0.270615 -0.226739,-0.180229 -0.401153,-0.43867 -0.523243,-0.775872 -0.116277,-0.343016 -0.174142,-0.747348 -0.174142,-1.212454 0,-0.4709214 0.05787,-0.8752521 0.174142,-1.2124545 0.12209,-0.3372024 0.296504,-0.5956435 0.523243,-0.7758723 0.22674,-0.1860428 0.500261,-0.2787908 0.820022,-0.2787908 z M 42.013203,9.7364216 h 1.761042 c 0.343017,0 0.637158,0.055504 0.881339,0.1659664 0.249995,0.110463 0.44185,0.270615 0.575568,0.479913 0.139532,0.203484 0.209297,0.453204 0.209297,0.74971 0,0.424409 -0.145889,0.750254 -0.436581,0.976994 -0.290691,0.226739 -0.714826,0.340108 -1.272954,0.340108 h -1.717711 z" /></g>
</svg>
